<?xml version="1.0" standalone="no"?>
<!DOCTYPE svg PUBLIC "-//W3C//DTD SVG 20010904//EN"
 "http://www.w3.org/TR/2001/REC-SVG-20010904/DTD/svg10.dtd">
<svg version="1.0" xmlns="http://www.w3.org/2000/svg"
 width="3085.000000pt" height="3085.000000pt" viewBox="0 0 3085.000000 3085.000000"
 preserveAspectRatio="xMidYMid meet">
<metadata>
Created by potrace 1.11, written by Peter Selinger 2001-2013
</metadata>
<g transform="translate(0.000000,3085.000000) scale(0.100000,-0.100000)"
fill="#000000" stroke="none">
<path d="M12787 29933 c-1 -1 -79 -4 -172 -7 -94 -3 -204 -8 -246 -10 -127 -7
-272 -18 -309 -22 -19 -2 -64 -6 -100 -10 -36 -3 -83 -7 -105 -9 -44 -3 -130
-13 -185 -21 -19 -3 -57 -7 -83 -10 -65 -7 -102 -12 -102 -14 0 -1 -16 -3 -35
-5 -92 -10 -127 -15 -150 -20 -14 -3 -43 -8 -65 -10 -22 -2 -112 -18 -200 -35
-88 -17 -173 -32 -190 -34 -16 -2 -32 -5 -35 -6 -3 -1 -9 -3 -15 -4 -10 -2
-95 -19 -105 -21 -43 -10 -71 -16 -99 -20 -19 -3 -37 -7 -40 -9 -3 -2 -22 -7
-41 -10 -19 -3 -89 -19 -155 -36 -66 -17 -129 -32 -140 -34 -11 -2 -38 -9 -59
-14 -22 -6 -43 -9 -48 -6 -4 3 -8 1 -8 -4 0 -4 -35 -17 -77 -27 -93 -22 -71
-16 -218 -60 -66 -20 -127 -38 -135 -39 -8 -2 -28 -8 -44 -15 -16 -6 -36 -13
-45 -14 -9 -1 -22 -6 -28 -10 -7 -5 -13 -6 -13 -2 0 3 -13 -1 -30 -10 -16 -8
-32 -15 -35 -14 -8 1 -167 -51 -185 -60 -9 -5 -31 -12 -50 -16 -19 -4 -41 -11
-50 -15 -38 -19 -92 -40 -101 -40 -5 0 -26 -7 -47 -16 -20 -10 -44 -18 -53
-20 -9 -2 -37 -12 -62 -23 -26 -11 -47 -17 -47 -13 0 4 -4 2 -8 -3 -4 -6 -52
-28 -107 -49 -55 -22 -120 -48 -145 -59 -25 -11 -48 -21 -52 -21 -3 -1 -10 -4
-14 -8 -4 -5 -16 -8 -26 -8 -10 0 -18 -4 -18 -10 0 -5 -3 -9 -7 -8 -10 2 -34
-7 -98 -37 -27 -13 -90 -41 -140 -63 -49 -22 -152 -70 -227 -106 -76 -37 -140
-67 -144 -66 -4 1 -10 -3 -13 -9 -4 -5 -27 -19 -51 -31 -68 -32 -110 -54 -285
-150 -210 -114 -209 -113 -217 -125 -4 -5 -8 -6 -8 -1 0 5 -8 2 -17 -6 -30
-25 -123 -78 -123 -70 0 4 -4 2 -8 -4 -4 -5 -25 -21 -47 -34 -52 -31 -417
-262 -430 -272 -5 -5 -73 -52 -150 -104 -227 -157 -697 -510 -735 -554 -3 -3
-27 -24 -55 -45 -27 -22 -57 -47 -66 -55 -37 -33 -68 -60 -149 -131 -47 -40
-90 -78 -96 -84 -6 -5 -60 -55 -119 -110 -189 -174 -494 -484 -665 -675 -114
-127 -133 -149 -202 -230 -34 -41 -67 -80 -73 -86 -5 -6 -23 -28 -40 -49 -16
-20 -35 -42 -40 -49 -6 -6 -26 -31 -45 -56 -19 -25 -37 -47 -40 -50 -4 -3 -35
-43 -71 -90 -35 -47 -67 -89 -72 -95 -7 -8 -48 -64 -133 -180 -8 -11 -41 -58
-75 -105 -33 -47 -67 -94 -76 -105 -10 -11 -15 -20 -13 -20 5 0 -60 -97 -70
-105 -4 -3 -9 -12 -13 -20 -4 -8 -29 -49 -56 -90 -76 -115 -216 -343 -219
-357 -2 -7 -8 -13 -13 -13 -5 0 -9 -5 -9 -11 0 -6 -15 -37 -34 -68 -19 -31
-44 -74 -56 -96 -13 -22 -36 -62 -51 -90 -16 -27 -41 -75 -56 -105 -15 -30
-30 -57 -33 -60 -13 -12 -289 -581 -293 -605 -1 -5 -4 -12 -7 -15 -3 -3 -39
-84 -79 -180 -40 -96 -78 -188 -86 -205 -7 -16 -21 -52 -30 -80 -10 -27 -22
-55 -27 -61 -4 -6 -9 -19 -11 -30 -2 -10 -10 -32 -16 -49 -7 -16 -26 -68 -42
-115 -17 -47 -33 -92 -36 -100 -4 -8 -7 -18 -7 -22 -1 -3 -4 -10 -8 -14 -5 -4
-8 -15 -8 -25 0 -9 -9 -39 -20 -65 -11 -26 -22 -56 -25 -68 -2 -12 -4 -21 -5
-21 -1 0 -3 -7 -5 -15 -2 -8 -18 -60 -35 -115 -49 -157 -87 -283 -110 -370
-35 -130 -40 -149 -45 -169 -2 -10 -25 -105 -49 -210 -25 -105 -48 -204 -51
-221 -2 -16 -7 -41 -10 -55 -7 -29 -14 -66 -19 -95 -8 -43 -19 -101 -23 -120
-10 -51 -25 -133 -37 -215 -3 -19 -7 -44 -10 -55 -2 -11 -7 -42 -10 -70 -4
-27 -11 -77 -16 -110 -5 -33 -12 -82 -15 -110 -3 -27 -7 -66 -9 -85 -3 -19 -7
-58 -11 -86 -3 -29 -8 -76 -11 -105 -3 -30 -7 -67 -9 -84 -2 -16 -6 -75 -9
-130 -4 -55 -8 -116 -11 -135 -13 -101 -19 -328 -20 -710 0 -428 5 -580 30
-885 11 -138 15 -175 31 -315 4 -30 8 -71 9 -90 2 -19 6 -55 10 -80 5 -25 9
-62 9 -82 1 -21 5 -38 9 -38 5 0 6 -3 4 -7 -3 -5 1 -46 9 -93 8 -47 16 -103
19 -125 3 -22 8 -51 10 -65 13 -74 18 -97 20 -115 2 -11 9 -45 15 -75 6 -30
13 -71 16 -90 2 -19 7 -43 10 -52 3 -10 7 -28 9 -40 3 -13 13 -63 24 -113 11
-49 25 -115 31 -145 6 -30 14 -62 17 -70 3 -8 8 -26 10 -40 2 -14 11 -50 19
-80 8 -30 17 -66 20 -80 3 -14 23 -90 46 -170 22 -80 42 -154 45 -165 3 -11 7
-27 10 -35 3 -8 7 -19 9 -25 1 -5 17 -55 34 -110 17 -55 33 -109 36 -120 4
-20 98 -296 111 -325 3 -8 7 -17 7 -20 1 -3 6 -18 13 -35 6 -16 25 -68 43
-115 18 -47 36 -94 40 -105 5 -11 36 -88 69 -171 59 -149 76 -189 132 -312 16
-35 29 -65 29 -68 0 -2 33 -74 74 -159 41 -85 78 -164 81 -175 3 -11 11 -20
17 -20 6 0 9 -2 6 -6 -9 -8 172 -356 295 -569 22 -38 45 -79 51 -90 19 -35
147 -248 181 -300 18 -27 66 -102 106 -165 41 -63 77 -116 81 -118 5 -2 8 -8
8 -13 0 -5 19 -36 43 -69 23 -32 64 -90 91 -129 31 -43 54 -67 62 -64 8 3 14
9 14 14 0 5 6 9 14 9 8 0 16 3 18 8 2 4 88 63 193 132 104 69 194 128 200 133
38 29 127 87 135 87 4 0 10 3 12 8 2 4 91 66 198 137 107 72 200 134 205 138
6 4 84 57 175 117 91 61 170 113 175 118 10 8 232 157 263 177 8 6 34 22 56
37 23 15 140 94 261 174 121 81 222 151 223 155 2 5 8 9 13 9 11 0 133 81 137
92 2 5 9 8 16 8 7 0 22 9 34 20 12 12 22 18 22 15 0 -3 8 2 18 11 9 8 96 68
192 131 96 64 178 120 181 126 3 5 8 7 10 5 2 -1 20 10 40 25 20 15 41 27 47
27 6 0 12 4 14 8 2 4 105 75 229 158 l225 151 -22 34 c-13 19 -27 39 -32 45
-56 64 -267 392 -383 594 -43 74 -83 140 -89 147 -5 7 -10 18 -10 26 0 7 -4
17 -10 23 -5 5 -51 93 -103 194 -80 159 -119 244 -193 418 -8 17 -21 47 -29
66 -8 19 -31 76 -50 128 -20 51 -40 102 -45 113 -5 11 -23 63 -40 115 -18 52
-34 102 -37 110 -4 8 -7 20 -8 25 -2 6 -17 53 -33 105 -28 86 -62 199 -68 225
-1 6 -14 56 -29 113 -14 56 -28 113 -31 127 -2 13 -8 35 -14 49 -5 13 -6 26
-3 29 3 3 1 12 -3 19 -4 7 -9 19 -10 28 -1 8 -4 26 -7 40 -15 69 -36 178 -40
205 -3 17 -10 57 -15 90 -6 33 -13 76 -16 95 -3 19 -8 46 -10 60 -3 14 -7 48
-10 75 -3 28 -7 61 -10 75 -2 14 -7 57 -11 95 -4 39 -8 88 -10 110 -18 175
-27 394 -27 625 0 186 9 466 17 524 2 17 7 67 11 111 10 122 11 137 19 185 4
25 9 61 10 80 4 53 16 131 30 200 2 14 7 39 9 55 3 17 8 53 12 80 5 28 8 52 9
55 0 3 4 11 8 18 5 6 6 12 4 12 -3 0 2 28 9 63 8 34 16 73 18 87 7 42 64 271
86 345 11 39 22 79 25 90 5 26 11 46 17 65 3 8 29 89 58 180 29 91 56 170 60
175 4 6 16 38 26 72 10 35 22 63 27 63 4 0 7 6 7 13 0 20 56 160 96 240 8 16
14 32 14 37 0 15 177 388 190 400 3 3 22 39 43 80 21 41 42 82 47 90 5 8 42
71 82 140 40 69 77 133 83 142 23 39 110 174 117 183 5 6 28 39 51 74 23 35
49 73 57 85 28 41 124 171 165 222 22 28 54 68 70 90 151 195 306 367 539 599
176 176 216 213 341 322 33 29 74 64 90 78 17 14 49 40 73 57 23 17 42 35 42
40 0 4 7 8 15 8 8 0 15 4 15 8 0 10 103 87 113 84 4 -1 7 2 7 7 0 14 284 216
479 341 155 99 350 215 431 255 19 10 37 21 40 24 5 7 435 221 444 221 2 0 34
14 70 30 36 17 68 31 71 31 2 0 38 15 80 34 41 19 75 32 75 30 0 -3 10 1 23 9
12 8 31 16 42 18 11 2 22 5 25 8 3 3 28 13 55 23 109 40 301 108 315 112 8 2
26 8 40 13 14 5 30 11 35 12 6 1 15 4 20 6 49 17 293 84 435 120 8 2 33 8 55
14 22 6 49 12 60 15 165 32 335 67 355 72 14 3 28 6 33 5 4 -1 27 2 51 8 25 5
66 12 93 15 46 6 75 10 118 19 11 2 50 7 87 10 37 4 77 9 90 11 20 3 90 11
198 20 19 2 73 6 120 10 46 3 86 8 89 10 2 2 12 0 22 -5 10 -6 20 -6 23 -2 13
21 755 18 961 -3 22 -3 76 -7 119 -10 43 -2 93 -7 110 -10 17 -2 58 -7 91 -10
33 -3 67 -8 75 -10 8 -2 46 -6 83 -10 37 -3 78 -8 90 -11 12 -2 38 -6 57 -9
19 -3 45 -7 56 -9 22 -4 78 -14 124 -21 71 -12 286 -55 363 -74 20 -5 37 -7
37 -5 0 3 9 0 21 -6 11 -7 33 -13 47 -15 28 -4 163 -38 218 -56 17 -5 40 -11
50 -13 10 -2 60 -16 109 -31 50 -14 118 -35 152 -45 34 -10 67 -21 73 -25 5
-3 18 -8 27 -10 20 -3 296 -101 328 -116 24 -10 77 -31 88 -34 4 -2 9 -4 12
-5 3 -1 8 -3 13 -5 4 -1 24 -9 44 -18 21 -10 41 -17 45 -17 4 0 30 -11 58 -24
27 -14 104 -48 170 -77 111 -49 407 -196 500 -249 273 -153 414 -238 605 -367
190 -129 254 -175 258 -184 2 -5 8 -9 14 -9 5 0 15 -6 22 -12 8 -7 24 -20 36
-28 24 -16 275 -216 343 -273 55 -46 75 -63 165 -144 74 -66 92 -84 203 -189
116 -110 365 -373 459 -484 30 -36 57 -67 61 -70 5 -4 217 -269 237 -295 4 -5
25 -34 46 -63 23 -31 42 -49 49 -45 35 20 644 430 655 440 7 7 17 13 22 13 5
0 15 6 22 13 8 6 21 17 31 22 54 32 523 350 525 357 2 4 8 8 13 8 9 0 125 77
147 98 7 6 19 12 27 12 7 0 15 4 17 8 4 11 228 162 239 162 5 0 9 3 9 8 0 4
17 16 37 27 20 11 41 25 47 30 19 18 258 175 266 175 5 0 10 4 12 8 3 8 85 64
373 256 50 33 92 63 93 68 2 4 8 8 14 8 6 0 31 15 57 33 25 17 53 37 62 42 60
38 195 131 197 138 2 4 7 7 12 7 7 0 201 127 226 148 5 5 20 15 32 21 22 12
22 12 -25 74 -26 34 -58 76 -72 93 -14 17 -37 46 -51 64 -14 18 -41 51 -60 75
-19 23 -48 59 -65 79 -16 21 -38 47 -48 59 -31 36 -111 129 -122 141 -5 6 -27
31 -49 56 -39 45 -142 160 -246 274 -90 98 -467 474 -579 576 -57 52 -108 100
-115 106 -12 11 -110 98 -161 143 -30 27 -336 282 -366 306 -10 7 -48 37 -85
67 -38 29 -76 58 -84 65 -8 7 -51 39 -95 72 -44 33 -84 64 -90 69 -5 4 -84 61
-175 125 -91 64 -170 120 -175 124 -54 40 -105 73 -113 73 -6 0 -12 3 -14 8
-1 4 -48 36 -103 71 -55 36 -103 69 -107 75 -5 7 -8 7 -8 1 0 -6 -3 -6 -8 0
-6 9 -65 47 -180 116 -15 9 -69 41 -120 73 -51 31 -97 56 -102 56 -6 0 -10 4
-10 8 0 4 -12 13 -27 19 -16 7 -53 26 -83 43 -30 17 -73 42 -95 54 -162 93
-545 288 -545 278 0 -4 -4 -2 -8 3 -9 12 -50 32 -297 145 -57 26 -217 96 -320
140 -11 4 -36 15 -55 23 -68 30 -295 118 -314 122 -10 2 -23 8 -30 13 -6 5
-32 15 -59 22 -26 7 -50 17 -53 21 -3 5 -15 9 -28 9 -12 0 -26 4 -31 8 -6 4
-28 14 -50 21 -22 7 -49 16 -60 21 -42 19 -491 161 -517 164 -3 1 -10 4 -14 9
-4 4 -16 7 -26 7 -10 0 -46 9 -80 21 -49 16 -210 60 -308 84 -8 2 -15 4 -15 5
0 1 -9 3 -20 5 -11 2 -40 9 -65 15 -25 6 -52 13 -60 15 -8 2 -53 13 -100 24
-47 11 -97 22 -110 25 -14 3 -43 10 -65 15 -38 9 -77 18 -120 26 -11 2 -31 6
-45 9 -14 4 -41 9 -60 12 -19 3 -44 8 -55 11 -11 4 -29 7 -40 9 -11 1 -29 4
-40 7 -11 3 -42 8 -69 11 -28 4 -79 13 -115 21 -36 7 -93 17 -126 21 -33 4
-62 8 -65 9 -38 8 -154 25 -290 41 -36 4 -67 8 -70 9 -23 5 -165 21 -265 30
-76 7 -160 15 -210 20 -78 8 -254 19 -495 30 -134 7 -749 13 -753 8z"/>
<path d="M12929 22636 c-2 -2 -44 -7 -94 -10 -90 -7 -114 -10 -170 -20 -16 -2
-48 -7 -70 -11 -37 -5 -51 -7 -110 -20 -11 -3 -30 -7 -42 -9 -137 -28 -390
-110 -553 -180 -108 -47 -354 -175 -358 -187 -2 -5 -8 -7 -13 -3 -5 3 -9 1 -9
-4 0 -5 -18 -17 -40 -27 -22 -10 -40 -21 -40 -25 0 -4 -11 -12 -25 -18 -14 -7
-31 -17 -38 -22 -7 -6 -50 -38 -97 -72 -46 -34 -90 -66 -96 -72 -7 -6 -41 -33
-75 -61 -99 -78 -355 -339 -452 -460 -92 -114 -226 -310 -294 -430 -56 -97
-123 -230 -123 -244 0 -6 -4 -11 -10 -11 -5 0 -10 -6 -10 -14 0 -7 -15 -46
-34 -87 -51 -112 -111 -285 -152 -439 -8 -30 -18 -62 -21 -70 -3 -8 -7 -22 -8
-30 -1 -14 -15 -82 -21 -105 -1 -5 -5 -23 -8 -40 -3 -16 -8 -41 -10 -55 -3
-14 -8 -43 -11 -65 -3 -22 -8 -53 -10 -70 -36 -214 -36 -718 -1 -875 3 -14 8
-46 11 -71 3 -25 8 -56 10 -70 3 -13 8 -37 11 -54 2 -16 9 -46 14 -65 5 -19
11 -46 14 -60 2 -14 5 -25 6 -25 2 0 7 -20 15 -58 3 -15 13 -49 22 -75 8 -26
17 -51 18 -57 1 -5 5 -17 8 -25 3 -8 13 -37 22 -64 32 -100 108 -274 170 -393
56 -106 189 -329 205 -343 3 -3 17 -21 30 -40 30 -43 28 -41 92 -120 150 -185
317 -347 530 -513 47 -37 249 -169 305 -199 208 -111 348 -174 503 -223 47
-15 92 -30 100 -33 8 -3 20 -7 25 -8 6 -1 12 -3 15 -4 8 -3 33 -9 75 -19 22
-5 49 -11 60 -14 122 -30 286 -57 380 -62 28 -2 50 -4 50 -5 0 -4 156 -9 250
-9 185 1 310 11 448 35 17 3 43 7 57 9 57 9 147 27 175 35 17 5 41 11 55 14
53 10 229 65 320 101 52 20 104 39 115 42 11 4 65 29 120 56 55 27 109 53 120
58 11 5 27 13 35 18 8 6 56 33 105 62 133 76 348 224 405 279 9 8 43 37 76 65
188 156 429 428 589 663 54 78 64 95 138 227 93 166 226 455 209 455 -4 0 -2
4 3 8 6 4 29 66 52 137 58 180 66 209 109 410 2 11 7 40 10 65 3 25 7 47 9 50
2 3 6 34 10 70 4 36 9 72 10 81 18 90 24 438 11 594 -13 159 -26 277 -32 286
-2 4 -6 24 -9 45 -3 22 -7 49 -10 62 -3 12 -7 32 -10 45 -3 12 -7 33 -10 47
-3 14 -16 66 -30 115 -14 50 -28 98 -30 109 -28 122 -170 449 -267 613 -26 45
-48 86 -48 92 0 6 -4 11 -9 11 -5 0 -14 14 -21 30 -7 17 -16 30 -20 30 -4 0
-13 14 -20 30 -7 17 -16 30 -21 30 -5 0 -9 6 -9 14 0 8 -4 16 -8 18 -5 2 -22
23 -39 48 -106 155 -397 458 -527 550 -23 16 -61 47 -82 68 -7 6 -15 12 -19
12 -3 0 -29 17 -58 38 -246 179 -607 345 -927 427 -134 34 -226 51 -375 72
-16 2 -46 6 -65 9 -41 5 -476 14 -481 10z"/>
<path d="M27135 18148 c-55 -38 -107 -72 -115 -76 -8 -3 -17 -8 -20 -12 -3 -3
-79 -55 -170 -115 -91 -60 -167 -112 -170 -115 -3 -3 -13 -9 -22 -15 -9 -5
-57 -38 -106 -72 -49 -34 -92 -59 -96 -56 -3 4 -6 2 -6 -4 0 -5 -64 -52 -142
-104 -79 -52 -144 -97 -146 -101 -2 -5 -10 -8 -18 -8 -8 0 -14 -4 -14 -10 0
-5 -4 -10 -8 -10 -7 0 -285 -182 -317 -207 -5 -5 -118 -80 -250 -168 -132 -88
-242 -162 -245 -165 -3 -3 -36 -26 -75 -50 -38 -25 -74 -49 -80 -53 -5 -4 -84
-57 -175 -118 -91 -60 -170 -113 -176 -118 -6 -5 -167 -113 -357 -240 -191
-127 -347 -235 -347 -240 0 -5 38 -74 85 -154 47 -80 85 -150 85 -155 0 -6 3
-12 8 -14 4 -2 52 -93 108 -203 90 -180 124 -251 187 -395 10 -25 26 -61 35
-80 8 -19 15 -37 15 -40 -1 -3 4 -14 10 -25 6 -11 12 -24 13 -30 2 -5 15 -39
30 -75 100 -242 268 -774 319 -1010 2 -8 9 -37 15 -65 6 -27 14 -61 16 -75 3
-14 7 -32 9 -40 2 -8 7 -28 10 -45 7 -45 14 -75 19 -93 3 -9 7 -35 11 -56 3
-21 8 -49 11 -62 3 -13 8 -36 9 -51 4 -30 10 -69 19 -118 3 -16 8 -52 11 -80
4 -27 8 -57 11 -67 3 -9 7 -44 9 -78 2 -34 6 -70 9 -79 6 -19 18 -145 21 -221
2 -30 4 -55 5 -55 3 0 6 -49 15 -225 14 -255 9 -708 -10 -945 -2 -22 -6 -69
-9 -105 -3 -36 -7 -85 -10 -110 -3 -25 -8 -70 -11 -100 -4 -30 -8 -66 -10 -80
-4 -25 -15 -114 -20 -160 -1 -14 -3 -25 -4 -25 -3 0 -6 -25 -15 -98 -3 -27 -8
-52 -10 -55 -2 -4 -7 -27 -10 -52 -3 -25 -8 -56 -12 -70 -3 -14 -7 -38 -10
-55 -6 -39 -12 -70 -14 -70 -2 0 -5 -16 -13 -60 -12 -65 -50 -226 -84 -355
-19 -74 -36 -139 -37 -145 -1 -5 -5 -15 -8 -21 -4 -6 -10 -24 -13 -40 -3 -16
-7 -33 -9 -39 -2 -5 -6 -23 -11 -40 -4 -16 -10 -34 -14 -40 -3 -5 -7 -17 -8
-26 -1 -9 -23 -77 -49 -150 -25 -74 -54 -159 -64 -189 -10 -30 -27 -76 -38
-102 -11 -25 -18 -49 -15 -52 4 -3 1 -6 -5 -6 -7 0 -11 -3 -10 -7 1 -5 -3 -18
-10 -30 -7 -13 -9 -23 -5 -23 4 0 2 -5 -5 -12 -7 -7 -12 -20 -12 -30 0 -10 -4
-18 -8 -18 -5 0 -9 -6 -9 -12 0 -40 -275 -620 -374 -790 -21 -36 -39 -69 -39
-71 0 -2 -29 -53 -65 -112 -36 -59 -65 -111 -65 -116 0 -5 -4 -9 -10 -9 -5 0
-10 -7 -10 -15 0 -8 -4 -15 -10 -15 -5 0 -10 -5 -10 -10 0 -18 -286 -443 -347
-515 -5 -5 -22 -28 -38 -50 -40 -54 -227 -286 -290 -359 -158 -184 -412 -446
-579 -597 -33 -30 -74 -67 -91 -84 -18 -16 -54 -48 -81 -70 -26 -22 -52 -45
-58 -50 -6 -6 -47 -40 -91 -75 -89 -72 -99 -80 -118 -96 -7 -6 -78 -59 -158
-118 -79 -58 -149 -111 -156 -116 -76 -61 -539 -350 -561 -350 -6 0 -12 -4
-14 -8 -4 -11 -62 -44 -238 -135 -74 -38 -139 -72 -145 -75 -5 -4 -12 -7 -15
-7 -3 -1 -50 -23 -105 -49 -55 -26 -109 -50 -120 -52 -11 -2 -21 -8 -23 -14
-2 -5 -11 -10 -21 -10 -9 0 -26 -6 -37 -14 -11 -8 -29 -16 -39 -18 -11 -1 -22
-6 -25 -9 -11 -12 -479 -186 -525 -195 -11 -2 -54 -14 -95 -28 -93 -30 -215
-67 -238 -71 -9 -2 -18 -4 -19 -5 -2 -2 -6 -3 -10 -4 -30 -7 -71 -17 -88 -21
-11 -2 -65 -15 -120 -29 -95 -23 -327 -71 -404 -82 -20 -3 -76 -12 -126 -19
-49 -8 -112 -17 -140 -20 -27 -3 -68 -8 -90 -11 -22 -2 -56 -6 -75 -9 -58 -7
-170 -17 -255 -21 -44 -3 -111 -6 -150 -9 -211 -12 -634 -3 -880 19 -22 2 -78
7 -125 11 -80 7 -108 11 -120 15 -3 1 -8 2 -11 2 -3 -1 -37 3 -75 9 -38 5 -87
12 -109 14 -22 3 -53 8 -70 12 -16 3 -39 7 -50 7 -11 1 -26 5 -32 9 -7 5 -13
6 -13 4 0 -2 -30 2 -67 10 -38 7 -81 15 -98 18 -56 8 -271 58 -340 78 -22 7
-42 12 -45 13 -35 5 -87 18 -95 23 -5 3 -19 7 -29 8 -10 2 -64 18 -120 35 -56
18 -103 33 -106 33 -3 1 -12 4 -20 8 -8 3 -31 10 -50 15 -19 6 -80 27 -135 47
-55 20 -111 40 -125 45 -32 10 -174 67 -225 90 -22 10 -67 29 -100 43 -33 14
-99 44 -147 66 -48 23 -92 41 -98 41 -5 0 -10 5 -10 10 0 6 -5 10 -12 10 -15
0 -208 98 -342 174 -54 31 -102 56 -107 56 -5 0 -9 5 -9 10 0 6 -5 10 -11 10
-7 0 -36 16 -65 35 -29 19 -57 35 -63 35 -6 0 -11 5 -11 10 0 6 -7 10 -15 10
-8 0 -15 5 -15 10 0 6 -5 10 -10 10 -9 0 -171 105 -310 201 -99 68 -453 341
-480 369 -3 3 -39 35 -80 70 -174 152 -485 457 -620 610 -41 46 -87 97 -102
112 -14 15 -25 28 -22 28 2 0 -5 9 -16 20 -18 18 -183 224 -240 299 -14 18
-30 38 -35 44 -35 39 -315 444 -326 472 -7 17 -71 115 -75 115 -2 0 -33 -20
-70 -45 -36 -25 -69 -45 -74 -45 -4 0 -10 -4 -12 -8 -1 -4 -64 -48 -138 -97
-74 -50 -137 -92 -140 -95 -3 -3 -13 -9 -22 -15 -10 -5 -171 -113 -358 -240
-188 -126 -352 -237 -365 -245 -39 -24 -538 -359 -560 -376 -11 -8 -42 -29
-70 -47 -27 -17 -56 -37 -63 -44 -7 -7 -20 -13 -28 -13 -8 0 -14 -5 -14 -10 0
-6 -8 -14 -17 -18 -10 -4 -67 -41 -128 -82 -60 -41 -118 -79 -127 -85 -32 -20
-493 -330 -498 -335 -3 -4 -23 -17 -45 -30 -22 -13 -42 -26 -45 -30 -3 -3 -50
-34 -105 -70 -55 -36 -102 -67 -105 -71 -3 -3 -39 -27 -80 -54 -41 -27 -76
-52 -78 -57 -2 -4 -8 -8 -13 -8 -10 0 -133 -82 -137 -92 -2 -5 -10 -8 -18 -8
-19 0 -18 -32 4 -56 9 -11 26 -35 36 -54 19 -35 145 -226 205 -310 17 -25 39
-56 48 -70 26 -38 176 -244 188 -256 5 -6 17 -22 25 -34 8 -12 21 -28 27 -36
7 -7 13 -17 13 -23 0 -6 4 -11 9 -11 5 0 17 -13 28 -29 10 -15 32 -45 48 -65
17 -21 55 -68 85 -105 85 -105 116 -144 137 -168 10 -12 34 -40 53 -63 19 -23
44 -52 55 -64 11 -12 47 -54 80 -92 242 -279 721 -760 923 -929 19 -16 51 -44
72 -64 21 -20 48 -45 61 -55 13 -10 53 -44 89 -75 36 -31 101 -86 145 -121 44
-36 87 -70 95 -77 15 -13 205 -160 250 -194 101 -77 214 -159 219 -159 4 0 18
-10 32 -23 14 -12 32 -26 41 -32 9 -5 97 -64 195 -130 98 -66 182 -122 188
-124 5 -2 36 -21 67 -43 31 -21 62 -38 67 -38 6 0 11 -4 11 -10 0 -5 5 -10 11
-10 6 0 30 -13 54 -29 23 -16 73 -46 110 -67 37 -22 88 -52 113 -67 26 -15 54
-30 62 -34 8 -3 23 -13 33 -21 9 -8 17 -12 17 -8 0 4 12 -1 27 -12 16 -10 62
-36 103 -58 41 -21 78 -43 82 -49 4 -5 8 -7 8 -3 0 3 30 -10 68 -30 66 -37
266 -136 412 -205 41 -19 149 -67 240 -107 91 -39 179 -77 197 -85 17 -8 35
-15 40 -15 4 -1 26 -9 48 -20 22 -11 44 -19 48 -20 5 0 23 -6 40 -14 49 -21
167 -66 217 -82 25 -8 54 -19 65 -24 11 -5 49 -19 85 -30 36 -12 74 -26 85
-31 11 -6 30 -11 43 -12 12 0 22 -5 22 -9 0 -4 6 -8 13 -8 7 0 63 -16 123 -35
60 -19 134 -42 164 -51 30 -9 62 -19 70 -22 8 -3 22 -6 30 -8 8 -2 38 -10 65
-18 41 -12 111 -32 148 -42 4 -1 8 -2 10 -4 3 -2 35 -9 62 -14 11 -2 49 -11
85 -21 36 -9 72 -18 80 -20 14 -3 135 -31 235 -55 22 -6 51 -12 65 -14 14 -3
50 -10 80 -16 63 -13 69 -14 210 -40 108 -20 137 -25 204 -35 21 -4 48 -9 60
-11 11 -2 39 -7 61 -9 22 -3 51 -7 65 -10 14 -2 50 -7 80 -10 30 -3 62 -8 70
-10 8 -2 44 -7 80 -10 36 -3 72 -8 80 -10 8 -2 47 -7 85 -10 70 -6 116 -10
210 -19 28 -3 95 -8 150 -12 55 -3 123 -8 150 -10 49 -3 378 -14 548 -18 48
-1 87 1 87 5 0 4 12 4 28 1 26 -7 110 -7 215 1 26 2 50 0 53 -5 3 -5 11 -5 17
-1 6 4 45 8 87 10 107 4 245 11 245 13 0 1 34 3 75 5 65 3 152 10 240 20 14 1
60 5 102 9 42 4 85 8 95 10 18 4 109 15 168 21 25 3 157 22 275 40 25 3 110
18 120 20 3 0 27 4 53 9 27 4 59 9 70 12 183 34 416 84 567 121 80 19 154 36
165 39 11 2 101 27 200 54 99 28 187 53 195 55 8 2 16 4 18 5 1 2 5 3 10 4 95
25 555 178 617 206 11 5 58 23 105 40 47 18 95 36 108 41 12 5 32 13 45 18 12
5 42 18 67 29 25 10 62 25 83 33 20 7 37 17 37 22 0 4 3 6 8 3 4 -2 23 3 42
12 19 8 37 16 40 17 38 13 203 89 395 181 66 32 123 57 128 56 4 -1 7 3 7 9 0
5 4 8 9 5 5 -4 11 -3 13 1 4 10 74 46 84 43 4 -1 10 2 13 7 3 5 42 27 86 50
66 33 167 88 379 206 11 7 23 14 26 17 3 3 25 16 50 29 25 14 47 27 50 30 3 3
21 15 40 25 55 30 352 217 386 243 17 12 36 23 43 23 6 0 14 7 17 15 4 8 10
12 15 9 5 -3 9 0 9 5 0 6 6 11 14 11 8 0 16 4 18 8 3 8 136 102 144 102 3 0
10 5 17 11 7 5 69 52 139 102 123 90 318 236 328 247 3 3 23 18 45 35 22 16
42 32 45 35 3 3 28 23 55 45 63 49 234 193 256 214 9 9 34 30 55 47 22 18 53
45 70 60 17 16 73 67 124 114 300 272 580 557 867 880 7 8 29 32 48 53 19 20
35 40 35 43 0 3 10 15 23 28 12 12 40 45 62 71 22 27 45 53 50 59 6 6 28 34
49 61 22 28 44 55 50 60 6 6 30 35 53 65 22 30 64 84 92 120 28 36 65 85 83
110 17 25 43 59 57 76 14 17 33 41 41 54 8 12 21 28 28 36 6 7 12 15 12 19 0
4 6 12 13 19 6 8 19 24 27 36 8 12 29 41 46 64 36 49 314 466 314 472 0 2 21
36 47 76 68 107 163 269 163 278 0 5 4 10 8 12 5 2 22 28 39 58 16 30 40 73
53 95 97 170 300 564 300 581 0 7 3 14 8 16 8 3 16 21 88 173 41 88 146 325
169 380 4 11 7 23 7 28 -1 4 2 7 6 7 5 0 9 6 10 13 0 6 34 95 76 197 98 242
262 696 282 780 1 8 14 45 27 82 13 37 22 69 20 72 -3 2 0 13 6 23 10 19 121
405 125 433 1 9 5 21 10 28 4 6 5 12 2 12 -3 0 -1 12 5 28 6 15 13 38 15 52 3
14 19 81 35 149 28 114 72 313 86 386 9 48 11 60 13 60 1 0 3 11 5 25 1 14 6
39 9 55 4 17 15 80 26 140 11 61 21 119 24 130 2 11 7 43 11 70 4 28 9 59 10
70 2 11 6 38 9 60 3 22 7 49 10 60 2 11 7 47 11 80 4 32 8 67 10 76 2 9 6 40
9 70 4 30 9 70 11 89 12 91 25 215 31 290 9 124 14 179 18 220 5 41 13 171 21
350 2 36 4 65 5 65 8 0 5 862 -3 873 -5 6 -6 12 -1 12 5 0 9 20 9 45 0 25 -2
45 -5 45 -3 0 -5 33 -6 73 -1 83 -15 296 -30 472 -3 28 -6 74 -7 102 -1 29 -4
53 -7 53 -3 0 -5 12 -6 28 -1 41 -16 196 -19 202 -2 3 -6 39 -10 80 -4 41 -8
77 -10 80 -1 3 -6 34 -10 70 -4 36 -9 74 -12 85 -3 11 -6 34 -7 50 -2 17 -5
39 -9 50 -3 11 -8 43 -12 70 -7 61 -22 149 -29 180 -2 6 -6 30 -10 55 -11 65
-14 85 -16 85 -3 0 -9 39 -12 68 -1 15 -5 27 -8 27 -3 0 -6 15 -7 33 -1 17 -7
50 -12 72 -6 22 -24 105 -41 185 -17 80 -34 152 -37 160 -7 17 -9 26 -16 60
-15 73 -102 399 -143 535 -10 33 -19 62 -19 65 -1 3 -4 12 -7 20 -4 8 -25 76
-48 150 -44 142 -95 292 -161 475 -39 108 -46 125 -67 175 -5 14 -22 57 -37
95 -30 79 -115 283 -151 363 -13 29 -24 54 -24 56 0 2 -20 46 -44 98 -24 51
-53 116 -66 143 -52 115 -243 492 -328 645 -50 92 -155 276 -166 291 -10 15
-23 9 -111 -53z"/>
<path d="M18069 14635 c-2 -1 -35 -6 -74 -9 -79 -7 -126 -13 -170 -20 -16 -3
-47 -7 -67 -11 -31 -4 -109 -20 -193 -40 -99 -23 -191 -51 -197 -59 -4 -6 -8
-8 -8 -4 0 4 -33 -5 -72 -19 -40 -14 -77 -26 -83 -28 -13 -3 -65 -23 -90 -35
-11 -5 -45 -20 -75 -33 -92 -40 -195 -92 -198 -99 -2 -5 -10 -8 -18 -8 -8 0
-27 -8 -42 -18 -50 -34 -133 -82 -143 -82 -5 0 -9 -4 -9 -10 0 -5 -4 -10 -9
-10 -11 0 -153 -96 -241 -164 -122 -94 -274 -230 -369 -330 -25 -27 -53 -56
-62 -65 -46 -48 -144 -167 -202 -246 -37 -49 -70 -94 -74 -100 -5 -5 -21 -30
-37 -55 -16 -25 -42 -64 -58 -87 -15 -23 -28 -43 -28 -46 0 -2 -22 -42 -49
-89 -42 -73 -151 -291 -151 -302 0 -2 -7 -20 -15 -40 -8 -20 -15 -38 -16 -41
0 -2 -11 -29 -24 -58 -38 -87 -123 -367 -117 -389 1 -5 -3 -8 -9 -8 -5 0 -8
-4 -5 -9 4 -5 2 -20 -3 -34 -5 -14 -13 -44 -16 -68 -4 -24 -8 -46 -10 -49 -2
-3 -6 -30 -10 -60 -4 -30 -9 -58 -10 -61 -2 -3 -7 -28 -10 -55 -3 -27 -8 -62
-10 -79 -18 -123 -25 -455 -12 -625 8 -94 10 -118 21 -195 3 -22 8 -60 12 -85
6 -47 51 -264 60 -290 3 -8 5 -16 6 -17 0 -1 13 -44 28 -95 105 -345 259 -650
470 -933 129 -172 135 -179 275 -320 140 -140 200 -195 215 -195 5 0 10 -4 10
-9 0 -13 229 -177 351 -251 130 -78 342 -179 485 -230 49 -18 94 -33 99 -34 6
-2 17 -6 25 -9 47 -17 83 -26 90 -22 5 3 11 1 14 -4 5 -7 82 -28 176 -46 8 -2
15 -4 15 -5 0 -1 9 -3 20 -5 37 -5 90 -14 115 -19 68 -13 218 -28 302 -30 52
-2 100 -6 106 -10 6 -3 13 -2 17 3 3 6 13 7 23 4 17 -7 21 -7 172 1 83 5 124
9 230 21 65 8 150 22 190 31 14 3 36 8 50 10 20 4 129 31 235 58 6 2 17 6 25
9 8 3 44 15 80 27 36 11 72 24 80 27 8 3 20 7 25 8 15 4 225 95 257 111 15 8
31 15 35 16 5 1 38 19 75 40 37 21 72 38 78 38 5 0 10 4 10 9 0 5 8 11 18 14
17 6 72 37 82 47 8 8 44 30 65 39 12 5 27 16 34 25 7 9 17 16 22 16 5 0 17 7
26 15 10 8 50 38 89 67 256 189 546 485 702 713 15 22 33 46 40 53 6 7 12 17
12 22 0 5 6 15 14 22 50 50 312 540 300 560 -3 4 -1 8 4 8 6 0 13 12 17 28 3
15 12 41 20 57 13 30 27 68 26 72 0 2 8 23 19 48 11 25 20 49 21 53 1 4 3 12
5 17 26 83 80 292 89 345 3 19 10 58 15 85 5 28 11 64 14 80 2 17 5 30 6 30 1
0 3 20 5 45 2 25 7 63 10 84 23 173 23 527 0 704 -2 20 -7 55 -10 77 -2 22 -7
54 -11 70 -3 17 -7 41 -8 55 -2 14 -6 32 -9 40 -3 8 -8 31 -10 50 -16 119
-109 424 -173 568 -13 29 -24 55 -24 58 0 7 -108 222 -138 275 -42 76 -134
220 -157 248 -14 16 -25 32 -25 36 0 6 -140 183 -195 244 -47 53 -176 181
-236 234 -30 26 -67 59 -82 73 -80 71 -364 263 -442 299 -22 10 -42 21 -45 25
-4 5 -96 52 -110 55 -3 1 -30 13 -60 27 -113 53 -343 136 -440 159 -19 4 -53
12 -75 18 -22 5 -51 12 -65 15 -51 10 -136 26 -167 31 -18 3 -46 7 -62 10 -85
15 -591 32 -602 20z"/>
</g>
</svg>
